# xmcd CD database file
#
# Track frame offsets:
#	150
#	28235
#	52749
#	75363
#	99292
#	123181
#	154917
#	165384
#	196250
#	208053
#	235313
#	281940
#	292171
#
# Disc length: 4237 seconds
#
# Revision: 3
# Processed by: cddbd v1.5.2PL0 Copyright (c) Steve Scherf et al.
# Submitted via: CDex 1.70beta2
#
DISCID=af108b0d
DTITLE=BOOM BOOM SATELLITES - TO THE LOVELESS
DYEAR=2010
DGENRE=J-Pop
TTITLE0=BACK ON MY FEET
TTITLE1=DRAIN
TTITLE2=LOCK ME OUT
TTITLE3=THE HARDER THEY COME, THE HARDER THEY FALL
TTITLE4=UNDERTAKER
TTITLE5=ALL IN A DAY
TTITLE6=TO THE LOVELESS
TTITLE7=VAPOUR
TTITLE8=SPELLBOUND
TTITLE9=STAY
TTITLE10=CAUGHT IN THE SUN
TTITLE11=FRAGMENT OF SANITY
TTITLE12=HOUNDS
EXTD=YEAR: 2010
EXTT0=
EXTT1=
EXTT2=
EXTT3=
EXTT4=
EXTT5=
EXTT6=
EXTT7=
EXTT8=
EXTT9=
EXTT10=
EXTT11=
EXTT12=
PLAYORDER=
